<svg xmlns="http://www.w3.org/2000/svg" viewBox="0 0 86 30"><title>IKEA</title><g fill="none" fill-rule="evenodd"><path d="M.345 1.3h79.07v28.4H.345V1.3z" fill="#005E9D"/><path d="M39.88 28.4c21.48 0 38.92-5.8 38.92-13-.026-7.2-17.4-13-38.9-13S1 8.2 1 15.4c-.016 7.2 17.4 13 38.9 13" fill="#FFDA1A"/><path d="M83.057 5.2c1.138 0 2.043-.9 2.043-2.1-.005-1.2-.9-2.1-2-2.1-1.195 0-2.1.9-2.1 2.1.006 1.2.9 2.1 2.1 2.1h-.043zM80.5 3.1c0-1.5 1.2-2.5 2.6-2.5 1.33 0 2.5 1 2.5 2.5.002 1.4-1.2 2.5-2.5 2.5-1.428 0-2.6-1.1-2.6-2.5zm2.55-.2c.374 0 .75 0 .75-.5-.044-.3-.4-.4-.7-.4h-.577v.9h.527zm-.527 1.6h-.438V1.6h1.104c.686 0 1.01.3 1.01.8.015.6-.3.8-.7.8l.788 1.3h-.493l-.765-1.2h-.507v1.2zM62.316 16.4s-.716-1.8-.816-1.9c-.054-.2-.1-.6-.1-.6h.023s-.023.4-.123.6c-.012.1-.8 1.9-.8 1.9h1.816zm1.018 4s.366-.4.166-.8l-.467-1.3h-3.1l-.508 1.3c-.113.4.175.8.175.8h-6.238s.338-.3.538-.8l3.365-8.8c.226-.6-.165-.9-.165-.9h9.997s-.397.3-.197.9l3.55 8.8c.28.5.65.8.65.8h-7.766zM11.158 20.4c.4-.2.342-.9.342-1l.03-8.8c0-.5-.33-.7-.33-.7h7.233s-.333.2-.333.7l.026 8.8c0 .1-.026.8.374 1h-7.342M28.19 14.1l2.42-3.4c.35-.5-.01-.8-.01-.8h7.1c-.035 0-.4.2-.7.6l-2.625 3.7 3.328 5.3c.288.4.497.6.697.7.167.1.3.2.3.2h-8.34s.24-.2.04-.7l-2.212-3.6v3.3c0 .1-.088.8.312 1h-7.084c.4-.2.384-.9.384-1l-.01-8.8c0-.5-.29-.7-.29-.7h6.996s-.296.2-.296.7l-.01 3.5M52.137 20.4v-3.7s-.437.5-1.137.5h-4.394v-.9h3.4c.19 0 .794.1.894.3l.03-3.2c-.154.2-.73.3-.93.3h-3.396v-.9h4.433c.653 0 1.063.5 1.063.5l.037-3.4H40.11s.29.2.29.7l.018 8.8c0 .1-.018.8-.418 1h12.137" fill="#005E9D"/></g></svg>